<?xml version="1.0" encoding="UTF-8" standalone="no"?>
<!-- Created with Inkscape (http://www.inkscape.org/) -->

<svg
   xmlns:dc="http://purl.org/dc/elements/1.1/"
   xmlns:cc="http://creativecommons.org/ns#"
   xmlns:rdf="http://www.w3.org/1999/02/22-rdf-syntax-ns#"
   xmlns:svg="http://www.w3.org/2000/svg"
   xmlns="http://www.w3.org/2000/svg"
   xmlns:xlink="http://www.w3.org/1999/xlink"
   xmlns:sodipodi="http://sodipodi.sourceforge.net/DTD/sodipodi-0.dtd"
   xmlns:inkscape="http://www.inkscape.org/namespaces/inkscape"
   width="256"
   height="256"
   viewBox="0 0 67.733332 67.733336"
   version="1.1"
   id="svg8"
   inkscape:version="0.92.3 (2405546, 2018-03-11)"
   sodipodi:docname="icon.svg"
   inkscape:export-filename="D:\Users\jacob\Projects\game-score\images\icon.png"
   inkscape:export-xdpi="96.000008"
   inkscape:export-ydpi="96.000008">
  <defs
     id="defs2">
    <linearGradient
       inkscape:collect="always"
       id="linearGradient906">
      <stop
         style="stop-color:#a44330;stop-opacity:1;"
         offset="0"
         id="stop902" />
      <stop
         style="stop-color:#6a1e0f;stop-opacity:1"
         offset="1"
         id="stop904" />
    </linearGradient>
    <linearGradient
       inkscape:collect="always"
       xlink:href="#linearGradient906"
       id="linearGradient908"
       x1="16.033445"
       y1="6.7651787"
       x2="21.154982"
       y2="25.286013"
       gradientUnits="userSpaceOnUse"
       gradientTransform="matrix(1.9806545,0,0,1.9806545,0.46467001,-32.572704)" />
  </defs>
  <sodipodi:namedview
     id="base"
     pagecolor="#ffffff"
     bordercolor="#666666"
     borderopacity="1.0"
     inkscape:pageopacity="0.0"
     inkscape:pageshadow="2"
     inkscape:zoom="1.4"
     inkscape:cx="-132.7036"
     inkscape:cy="95.739363"
     inkscape:document-units="mm"
     inkscape:current-layer="layer2"
     showgrid="false"
     units="px"
     showguides="true"
     inkscape:guide-bbox="true"
     inkscape:window-width="1920"
     inkscape:window-height="1017"
     inkscape:window-x="-8"
     inkscape:window-y="-8"
     inkscape:window-maximized="1" />
  <metadata
     id="metadata5">
    <rdf:RDF>
      <cc:Work
         rdf:about="">
        <dc:format>image/svg+xml</dc:format>
        <dc:type
           rdf:resource="http://purl.org/dc/dcmitype/StillImage" />
        <dc:title></dc:title>
      </cc:Work>
    </rdf:RDF>
  </metadata>
  <g
     inkscape:groupmode="layer"
     id="layer2"
     inkscape:label="ball"
     style="display:inline"
     transform="translate(0,33.866667)">
    <path
       style="opacity:1;fill:url(#linearGradient908);fill-opacity:1;stroke:none;stroke-width:0.50593728;stroke-linecap:round;stroke-linejoin:round;stroke-miterlimit:4;stroke-dasharray:none;stroke-opacity:1;paint-order:normal"
       d="M 26.962856,-17.897129 C 9.5051828,-11.330412 -0.48986118,5.2330322 2.127654,12.191723 c 2.4003316,6.381305 21.209205,12.769217 38.508612,6.262032 17.491866,-6.579577 27.32603,-23.4669677 24.835202,-30.08885 -2.653717,-7.054918 -21.016746,-12.841613 -38.508612,-6.262034 z m 19.959794,7.503508 c 0.442056,-0.166276 0.875794,-0.233315 1.301205,-0.201104 0.423828,0.02799 0.82987,0.168415 1.218126,0.421256 0.386671,0.2486232 0.750036,0.6141471 1.090089,1.0965692 0.340052,0.4824201 0.647856,1.0899066 0.923407,1.8224596 0.237541,0.631512 0.391345,1.2320482 0.461413,1.8016074 0.06847,0.5653499 0.04478,1.0836713 -0.07109,1.5549684 -0.117453,0.4670897 -0.328945,0.875836 -0.634463,1.2262408 -0.302895,0.3446083 -0.711154,0.6135143 -1.224786,0.806717 -0.442058,0.1662756 -0.874999,0.23542 -1.298828,0.2074159 -0.425412,-0.03222 -0.831455,-0.172634 -1.21813,-0.4212534 -0.386669,-0.2486254 -0.750032,-0.6141475 -1.090085,-1.0965693 -0.34005,-0.4824207 -0.647854,-1.0899075 -0.923407,-1.8224624 -0.237541,-0.6315115 -0.391345,-1.2320464 -0.461413,-1.8016051 -0.06588,-0.5711415 -0.04217,-1.0894649 0.07109,-1.5549703 0.115868,-0.4712966 0.32736,-0.8800444 0.634465,-1.2262371 0.305518,-0.3504035 0.71299,-0.6214147 1.222407,-0.8130327 z m 7.123456,-2.679494 c 0.442056,-0.16628 0.875792,-0.233315 1.301203,-0.201103 0.423827,0.02801 0.829872,0.16842 1.218126,0.421256 0.386675,0.248624 0.750036,0.614148 1.090089,1.096567 0.340052,0.482422 0.647856,1.089909 0.923407,1.822464 0.237543,0.6315118 0.391345,1.2320463 0.461415,1.8016053 0.06847,0.5653482 0.04478,1.0836716 -0.07109,1.5549723 -0.117453,0.4670858 -0.328943,0.8758321 -0.634461,1.2262369 -0.302893,0.3446083 -0.711156,0.6135164 -1.224786,0.806717 -0.442058,0.1662756 -0.874999,0.235419 -1.29883,0.2074179 -0.425411,-0.032225 -0.831454,-0.172634 -1.218127,-0.4212533 -0.386669,-0.2486255 -0.750034,-0.6141496 -1.090087,-1.0965693 -0.34005,-0.4824208 -0.647854,-1.0899072 -0.923405,-1.8224621 -0.237543,-0.631512 -0.391347,-1.2320504 -0.461413,-1.8016074 -0.06587,-0.5711413 -0.04216,-1.0894663 0.07109,-1.5549703 0.115868,-0.471299 0.327362,-0.880044 0.634465,-1.226237 0.30552,-0.350403 0.712992,-0.621416 1.222409,-0.813034 z m -42.851161,16.2049979 0.972528,-0.3658194 2.73413,7.2687045 1.844014,-0.6936263 0.384822,1.0230473 -5.184716,1.950235 -0.384821,-1.023051 2.12188,-0.798143 L 11.416617,4.4686028 9.8438078,6.2856851 9.0880759,5.5030743 Z m 7.447149,-2.75799884 1.578779,-0.59385887 2.054755,5.46257721 1.408274,-0.529722 0.36344,0.9662148 -1.408274,0.5297219 0.686503,1.8250685 -1.124092,0.4228282 -0.686502,-1.8250695 -3.97221,1.4941502 -0.363443,-0.9662127 z M 47.213439,-9.4289156 c -0.286284,0.1076882 -0.521182,0.2753406 -0.704687,0.5029554 -0.179288,0.2260304 -0.298778,0.50886 -0.358453,0.8484868 -0.06126,0.3354159 -0.05928,0.7239431 0.0059,1.1655756 0.06363,0.4374236 0.195985,0.9234743 0.397103,1.458158 l 0.147282,0.391536 c 0.05332,0.1289202 0.109233,0.2520632 0.1678,0.3694057 l 2.520748,-3.8965022 c -0.143915,-0.1909549 -0.297548,-0.3566407 -0.460892,-0.4970374 -0.163345,-0.1404086 -0.33613,-0.2484137 -0.518362,-0.324041 -0.183804,-0.07984 -0.37549,-0.1230581 -0.575028,-0.129713 -0.19953,-0.00674 -0.406656,0.030423 -0.62137,0.111174 z m 7.123456,-2.6794924 c -0.286286,0.107688 -0.521182,0.275339 -0.704689,0.502953 -0.179288,0.226033 -0.298778,0.508862 -0.358449,0.848489 -0.06126,0.335416 -0.05928,0.723941 0.0059,1.1655753 0.06364,0.4374236 0.195986,0.9234762 0.397106,1.4581559 l 0.147281,0.3915378 c 0.05332,0.1289208 0.109233,0.252064 0.167801,0.3694059 l 2.520746,-3.8965019 c -0.143915,-0.190955 -0.297547,-0.356636 -0.460892,-0.497039 -0.163326,-0.140409 -0.336132,-0.248412 -0.518364,-0.324037 -0.183804,-0.07984 -0.375486,-0.123059 -0.575023,-0.129713 -0.199535,-0.0067 -0.406659,0.03043 -0.621372,0.111174 z M 19.495858,1.2637928 18.278156,6.7462545 21.151536,5.6654306 Z m 30.495954,-8.8831726 -2.515957,3.9091313 c 0.145498,0.1951735 0.301506,0.3671651 0.468018,0.5159841 0.166514,0.1488261 0.342465,0.2652534 0.527862,0.3493003 0.188024,0.078233 0.382597,0.1228 0.583715,0.1336539 0.203746,0.00519 0.417187,-0.034388 0.64032,-0.1183046 0.286284,-0.1076878 0.519076,-0.2745436 0.698371,-0.5005787 0.183507,-0.227614 0.305886,-0.509131 0.367142,-0.8445488 0.06126,-0.3354138 0.06007,-0.7218334 -0.0036,-1.1592596 -0.0652,-0.4416337 -0.198363,-0.9297898 -0.399483,-1.4644698 -0.05385,-0.1431419 -0.113214,-0.2818055 -0.1781,-0.4159869 -0.06227,-0.1399928 -0.125039,-0.2749486 -0.18836,-0.4049231 z m 7.123456,-2.6794932 -2.515958,3.9091331 c 0.14548,0.195174 0.301505,0.3671636 0.468017,0.5159826 0.166514,0.1488261 0.342467,0.2652555 0.527866,0.3493003 0.188024,0.078233 0.382595,0.1228 0.583714,0.1336539 0.203742,0.00519 0.417184,-0.034388 0.640321,-0.1183045 0.286282,-0.1076879 0.519071,-0.2745437 0.698367,-0.5005768 0.183507,-0.227614 0.305888,-0.5091307 0.367144,-0.8445467 0.06126,-0.3354159 0.06007,-0.7218377 -0.0036,-1.1592632 -0.0652,-0.4416305 -0.198365,-0.9297905 -0.399485,-1.4644683 -0.05385,-0.1431419 -0.113214,-0.2818056 -0.1781,-0.4159889 -0.06227,-0.1399725 -0.125039,-0.2749485 -0.18836,-0.4049195 z M 32.382421,0.10732759 36.158865,-1.3131837 36.548434,-0.27750488 32.771993,1.1430064 Z"
       id="path830"
       inkscape:connector-curvature="0" />
  </g>
</svg>
